<svg xmlns="http://www.w3.org/2000/svg" version="1.1" xmlns:xlink="http://www.w3.org/1999/xlink" xmlns:svgjs="http://svgjs.dev/svgjs" width="1000" height="999" viewBox="0 0 1000 999"><g transform="matrix(1,0,0,1,-0.215743440233382,-0.21552769679306039)"><svg viewBox="0 0 343 343" data-background-color="#051726" preserveAspectRatio="xMidYMid meet" height="999" width="1000" xmlns="http://www.w3.org/2000/svg" xmlns:xlink="http://www.w3.org/1999/xlink"><g id="tight-bounds" transform="matrix(1,0,0,1,0.0740000000000407,0.07400000000001228)"><svg viewBox="0 0 342.85155851775386 342.85155851775386" height="342.85155851775386" width="342.85155851775386"><g><svg></svg></g><g><svg viewBox="0 0 342.85155851775386 342.85155851775386" height="342.85155851775386" width="342.85155851775386"><g><path d="M0 171.426c0-94.676 76.75-171.426 171.426-171.426 94.676 0 171.426 76.75 171.426 171.426 0 94.676-76.75 171.426-171.426 171.426-94.676 0-171.426-76.75-171.426-171.426zM171.426 326.308c85.539 0 154.882-69.343 154.882-154.882 0-85.539-69.343-154.882-154.882-154.882-85.539 0-154.882 69.343-154.882 154.882 0 85.539 69.343 154.882 154.882 154.882z" data-fill-palette-color="tertiary" fill="#000000" stroke="transparent"></path><ellipse rx="164.56874808852186" ry="164.56874808852186" cx="171.42577925887693" cy="171.42577925887693" fill="#000000" stroke="transparent" stroke-width="0" fill-opacity="1" data-fill-palette-color="tertiary"></ellipse></g><g transform="matrix(1,0,0,1,64.84655864529837,79.70162700515554)"><svg viewBox="0 0 213.1584412271571 183.44830450744277" height="183.44830450744277" width="213.1584412271571"><g><svg viewBox="0 0 213.1584412271571 183.44830450744277" height="183.44830450744277" width="213.1584412271571"><g><svg viewBox="0 0 213.1584412271571 183.44830450744277" height="183.44830450744277" width="213.1584412271571"><g><svg viewBox="0 0 213.1584412271571 183.44830450744277" height="183.44830450744277" width="213.1584412271571"><g id="textblocktransform"><svg viewBox="0 0 213.1584412271571 183.44830450744277" height="183.44830450744277" width="213.1584412271571" id="textblock"><g><svg viewBox="0 0 213.1584412271571 183.44830450744277" height="183.44830450744277" width="213.1584412271571"><g transform="matrix(1,0,0,1,0,0)"><svg width="213.1584412271571" viewBox="1 -38.9 45.2 38.9" height="183.44830450744277" data-palette-color="#051726"><path d="M29.8-30.7L29.8-38.9 46.2-38.9 46.2-30.7 43.7-30.7 43.7 0 29.65 0 15-22.55 15-8.2 17.4-8.2 17.4 0 1 0 1-8.2 3.5-8.2 3.5-30.7 1-30.7 1-38.9 19.05-38.9 32.2-18.85 32.2-30.7 29.8-30.7Z" opacity="1" transform="matrix(1,0,0,1,0,0)" fill="#ffffff" class="wordmark-text-0" data-fill-palette-color="quaternary" id="text-0"></path></svg></g></svg></g></svg></g></svg></g><g></g></svg></g></svg></g></svg></g></svg></g><defs></defs></svg><rect width="342.85155851775386" height="342.85155851775386" fill="none" stroke="none" visibility="hidden"></rect></g></svg></g></svg>