<svg xmlns="http://www.w3.org/2000/svg" version="1.1" xmlns:xlink="http://www.w3.org/1999/xlink" xmlns:svgjs="http://svgjs.dev/svgjs" width="128" height="128" viewBox="0 0 128 128"><g transform="matrix(0.8046875,0,0,0.8046875,12.333870967741937,12.333870967741937)"><svg viewBox="0 0 155 155" data-background-color="#636365" preserveAspectRatio="xMidYMid meet" height="128" width="128" xmlns="http://www.w3.org/2000/svg" xmlns:xlink="http://www.w3.org/1999/xlink"><g id="tight-bounds" transform="matrix(1,0,0,1,0.25,0.25)"><svg viewBox="0 0 154.5 154.5" height="154.5" width="154.5"><g><svg></svg></g><g><svg viewBox="0 0 154.5 154.5" height="154.5" width="154.5"><g transform="matrix(1,0,0,1,47.746371,52.78357595121952)"><svg viewBox="0 0 59.00725799999999 48.93284809756097" height="48.93284809756097" width="59.00725799999999"><g><svg viewBox="0 0 59.00725799999999 48.93284809756097" height="48.93284809756097" width="59.00725799999999"><g><svg viewBox="0 0 59.00725799999999 48.93284809756097" height="48.93284809756097" width="59.00725799999999"><g id="textblocktransform"><svg viewBox="0 0 59.00725799999999 48.93284809756097" height="48.93284809756097" width="59.00725799999999" id="textblock"><g><svg viewBox="0 0 59.00725799999999 48.93284809756097" height="48.93284809756097" width="59.00725799999999"><g transform="matrix(1,0,0,1,0,0)"><svg width="59.00725799999999" viewBox="0.98 -33.4 30.030000000000005 24.9" height="48.93284809756097" data-palette-color="#d2d6dc"><path d="M31.01-14.5L31.01-14.5Q31.01-13.18 31.01-11.84 31.01-10.5 30.91-9.18L30.91-9.18 20.02-8.5Q20.21-11.04 20.34-13.53 20.46-16.02 20.46-18.6L20.46-18.6Q20.46-18.85 20.46-19.43 20.46-20.02 20.41-20.68 20.36-21.34 20.31-21.92 20.26-22.51 20.21-22.75L20.21-22.75Q19.97-23.44 19.7-23.93 19.43-24.41 19.07-24.71 18.7-25 18.16-25.12 17.63-25.24 16.85-25.24L16.85-25.24Q16.26-25.24 15.36-25.15 14.45-25.05 13.53-24.85 12.6-24.66 11.77-24.37 10.94-24.07 10.6-23.68L10.6-23.68 10.5-9.28Q10.4-9.47 9.94-9.47 9.47-9.47 9.28-9.47L9.28-9.47Q7.81-9.47 6.25-9.35 4.69-9.23 3.22-9.03L3.22-9.03Q2.59-14.79 2.1-20.51 1.61-26.22 0.98-31.98L0.98-31.98Q1.95-32.03 2.93-32.06 3.91-32.08 4.88-32.08L4.88-32.08Q6.15-32.08 7.45-32.01 8.74-31.93 10.01-31.88L10.01-31.88 10.35-28.13Q11.72-30.37 14.06-31.88 16.41-33.4 19.09-33.4L19.09-33.4Q20.46-33.4 21.92-33.25 23.39-33.11 24.73-32.67 26.07-32.23 27.27-31.45 28.47-30.66 29.3-29.44L29.3-29.44Q29.69-28.86 29.96-27.71 30.22-26.56 30.42-25.12 30.62-23.68 30.74-22.07 30.86-20.46 30.91-18.99 30.96-17.53 30.98-16.33 31.01-15.14 31.01-14.5Z" opacity="1" transform="matrix(1,0,0,1,0,0)" fill="#d2d6dc" class="wordmark-text-0" data-fill-palette-color="primary" id="text-0"></path></svg></g></svg></g></svg></g></svg></g></svg></g></svg></g><g><path d="M56.59 41.232A29.504 29.504 0 0 1 97.91 41.232L93.498 41.232A25.091 25.091 0 0 0 61.002 41.232L56.59 41.232M56.59 113.268A29.504 29.504 0 0 0 97.91 113.268L93.498 113.268A25.091 25.091 0 0 1 61.002 113.268L56.59 113.268" fill="#d2d6dc" stroke="transparent" data-fill-palette-color="tertiary"></path></g></svg></g><defs></defs></svg><rect width="154.5" height="154.5" fill="none" stroke="none" visibility="hidden"></rect></g></svg></g></svg>